<svg xmlns="http://www.w3.org/2000/svg" width="85" height="71" viewBox="0 0 85 71">
  <metadata><?xpacket begin="﻿" id="W5M0MpCehiHzreSzNTczkc9d"?>
<x:xmpmeta xmlns:x="adobe:ns:meta/" x:xmptk="Adobe XMP Core 5.6-c140 79.160451, 2017/05/06-01:08:21        ">
   <rdf:RDF xmlns:rdf="http://www.w3.org/1999/02/22-rdf-syntax-ns#">
      <rdf:Description rdf:about=""/>
   </rdf:RDF>
</x:xmpmeta>
                                                                                                    
                                                                                                    
                                                                                                    
                                                                                                    
                                                                                                    
                                                                                                    
                                                                                                    
                                                                                                    
                                                                                                    
                                                                                                    
                                                                                                    
                                                                                                    
                                                                                                    
                                                                                                    
                                                                                                    
                                                                                                    
                                                                                                    
                                                                                                    
                                                                                                    
                                                                                                    
                           
<?xpacket end="w"?></metadata>
<defs>
    <style>
      .cls-1 {
        fill: #8a93aa;
        fill-rule: evenodd;
      }
    </style>
  </defs>
  <path class="cls-1" d="M13015.7,2487.3c-0.3-.19-8.5-4.46-22.1-7.04l-0.5-2.25a12.767,12.767,0,0,0-12.5-10.01h-12.2a12.83,12.83,0,0,0-12.5,10.01l-0.5,2.25c-13.6,2.57-21.8,6.85-22.1,7.04a2.362,2.362,0,0,0-1.3,2.09v27.93a20.224,20.224,0,0,0,20.1,20.31,2.37,2.37,0,1,0,0-4.74,15.5,15.5,0,0,1-15.4-15.57v-26.43a87.2,87.2,0,0,1,21-6.24,2.406,2.406,0,0,0,1.9-1.79l0.9-3.78a8.053,8.053,0,0,1,7.9-6.34h12.2a8.032,8.032,0,0,1,7.9,6.34l0.9,3.78a2.378,2.378,0,0,0,1.9,1.79,87.2,87.2,0,0,1,21,6.24v26.43a15.5,15.5,0,0,1-15.4,15.57,2.37,2.37,0,1,0,0,4.74,20.211,20.211,0,0,0,20.1-20.31v-27.93A2.362,2.362,0,0,0,13015.7,2487.3Zm-76-4.84a1.926,1.926,0,0,0,.7-0.13c2.5-.82,5.1-1.56,7.8-2.19a2.391,2.391,0,0,0,1.7-2.85,2.341,2.341,0,0,0-2.8-1.75c-2.8.66-5.5,1.44-8.1,2.3a2.316,2.316,0,0,0-1.5,2.98A2.286,2.286,0,0,0,12939.7,2482.46Zm34.8,1.93a27.306,27.306,0,1,0,27.1,27.31A27.255,27.255,0,0,0,12974.5,2484.39Zm0,49.87a22.566,22.566,0,1,1,22.4-22.57A22.539,22.539,0,0,1,12974.5,2534.26Zm-12.1-7.35a19.642,19.642,0,0,1-6.4-14.91c0-12.43,10.1-19.71,21.5-20C12966.1,2496.58,12958.3,2503.62,12962.4,2526.91Z" transform="translate(-12932 -2468)"/>
</svg>
