<svg xmlns="http://www.w3.org/2000/svg" width="58" height="87" viewBox="0 0 58 87">
  <metadata><?xpacket begin="﻿" id="W5M0MpCehiHzreSzNTczkc9d"?>
<x:xmpmeta xmlns:x="adobe:ns:meta/" x:xmptk="Adobe XMP Core 5.6-c140 79.160451, 2017/05/06-01:08:21        ">
   <rdf:RDF xmlns:rdf="http://www.w3.org/1999/02/22-rdf-syntax-ns#">
      <rdf:Description rdf:about=""/>
   </rdf:RDF>
</x:xmpmeta>
                                                                                                    
                                                                                                    
                                                                                                    
                                                                                                    
                                                                                                    
                                                                                                    
                                                                                                    
                                                                                                    
                                                                                                    
                                                                                                    
                                                                                                    
                                                                                                    
                                                                                                    
                                                                                                    
                                                                                                    
                                                                                                    
                                                                                                    
                                                                                                    
                                                                                                    
                                                                                                    
                           
<?xpacket end="w"?></metadata>
<defs>
    <style>
      .cls-1 {
        fill: #8a93aa;
        fill-rule: evenodd;
      }
    </style>
  </defs>
  <path id="Forma_1" data-name="Forma 1" class="cls-1" d="M13380.9,2409.86c-0.1-2.61-1.8-5.44-6-5.44h-5.3v-14.46a16.877,16.877,0,0,0-16.8-16.96h-1.7a16.877,16.877,0,0,0-16.8,16.96v14.46h-6.2a4.878,4.878,0,0,0-5.1,5.12v2.72a28.988,28.988,0,0,0,27.3,28.92v4.03h-13a4.358,4.358,0,0,0-4.4,4.46v5.87a4.364,4.364,0,0,0,4.4,4.46h29.8a4.42,4.42,0,0,0,4.4-4.46v-5.76a4.491,4.491,0,0,0-4.4-4.46h-12.9v-4.13a28.9,28.9,0,0,0,26.8-28.81v-2.29A0.394,0.394,0,0,1,13380.9,2409.86Zm-13.5,39.91v5.76a0.465,0.465,0,0,1-.5.43h-29.7a0.451,0.451,0,0,1-.4-0.43v-5.76a0.443,0.443,0,0,1,.4-0.43h29.7A0.4,0.4,0,0,1,13367.4,2449.77Zm-16.4-72.75h1.7a12.9,12.9,0,0,1,12.8,12.94v24.35a12.894,12.894,0,0,1-12.8,12.94h-1.7a12.9,12.9,0,0,1-12.8-12.94v-5.98h13.7a1.956,1.956,0,0,0,0-3.91h-13.7v-5.98h13.7a1.951,1.951,0,0,0,0-3.9h-13.7v-4.46a6.152,6.152,0,0,1,.1-1.41h13.6a1.956,1.956,0,0,0,0-3.91h-12.5A12.689,12.689,0,0,1,13351,2377.02Zm25.9,35.24a24.881,24.881,0,0,1-24.8,24.9h-0.4a24.881,24.881,0,0,1-24.8-24.9v-2.72a0.931,0.931,0,0,1,1.1-1.09h6.2v5.98a16.886,16.886,0,0,0,16.8,16.97h1.7a16.886,16.886,0,0,0,16.8-16.97v-5.98h5.5c1.3,0,1.8.43,1.9,1.52v2.29h0Z" transform="translate(-13323 -2373)"/>
</svg>
